<svg xmlns="http://www.w3.org/2000/svg" viewBox="0 0 442 300" enable-background="new 0 0 442 300"><path d="M64.734 80.585c.843 2.894-.743 5.025-1.822 7.275-1.661 3.462-2.896 7.042-4.01 10.732-1.426 4.726-1.956 9.699-4 14.248-.706 1.572-1.238 3.222-1.949 5.099 2.911.042 5.404-.68 7.568-2.342 3.237-2.485 6.424-5.035 10.219-6.651 2.458-1.047 4.923-2.09 7.663-2.136.196-.003.443.077.582-.012 2.188-1.399 3.808.167 5.133 1.34 3.402 3.011 7.017 5.711 10.926 8.336-1.064 3.054-.52 6.234-.663 9.293-1.667 1.931-3.295 3.817-4.971 5.76h-1.683c-1.998 1.554-2.753 3.968-4.117 6.01l-1.216-1.128c-1.52.957-2.941 2.029-4.51 2.801-2.946 1.45-5.349 3.667-8.036 5.476-2.07 1.394-4.057 2.876-6.298 4.025-1.738.891-3.409 1.951-4.793 3.416-.697.738-1.53 1.366-2.384 1.978-2.412 1.728-3.95 4.352-5.554 6.795-1.198 1.826-.712 4.401.942 6.119 3.467 3.603 6.922 7.231 11.178 9.973 2.035 1.311 3.994 2.752 5.909 4.235 3.889 3.012 8.016 5.672 12.284 8.081 4.121 2.327 8.428 4.322 12.61 6.544 6.182 3.284 12.034 7.112 17.845 11.001 1.195.8 2.36 1.646 3.661 2.557-1.956 1.436-4.256.888-6.087 1.88-2.338-2.064-5.333-2.085-7.856-2.86l-3.571 1.91-.822-1.587c-4.826.375-8.794-1.036-12.812-2.703-1.932-.802-3.758-1.828-5.716-2.569-1.95-.738-3.85-1.626-5.716-2.562-1.471-.738-2.825-1.708-4.288-2.464-1.369-.707-2.799-1.305-4.228-1.886-3.746-1.522-6.793-4.108-10.002-6.459-4.536-3.325-8.518-7.255-12.415-11.275-1.466-1.512-2.788-3.163-4.183-4.744-.244-.276-.523-.521-.946-.939-1.399 2.041-2.128 4.154-2.948 6.222-1.146 2.891-1.966 5.882-2.736 8.888-.321 1.254-.335 2.547-.758 3.809-.848 2.531-.786 5.294-1.806 7.803-.034.084.001.195-.005.293-.195 2.866-.444 5.73-.558 8.6-.036.901-.457 1.961.539 2.728.143.11.13.627.003.849-1.144 1.995-.253 4.175-.667 6.339-1.874 3.43-4.108 2.783-7.359 1.799-1.379-.418-2.655-1.173-4.091-1.826-.515-1.45-2.032-2.286-3.037-3.523-.569-1.94-1.247-3.844-1.673-5.803-.614-2.822-1.812-5.562-1.427-8.548.155-1.201.412-2.389.576-3.589.164-1.202.161-2.383.468-3.619.484-1.943.053-4.098.157-6.156.061-1.205-.39-2.417.45-3.65.657-.964-.129-2.311.573-3.593.612-1.117.4-2.732.615-4.126.467-3.035 1.459-5.923 2.059-8.914.663-3.301 1.995-6.466 2.709-9.76.682-3.148 1.637-6.217 2.506-9.301.269-.957.305-1.988.74-2.924.418-.902.957-1.94.844-2.844-.121-.968 1.085-1.847.092-2.766.983-1.585 1.131-3.457 1.713-5.179 1.344-3.975 2.274-8.091 3.625-12.064 1.644-4.831 2.593-9.882 4.657-14.575.054-2.827 1.468-5.298 2.15-7.963.674-2.634 1.622-5.233 2.337-7.85.893-3.267 1.857-6.529 2.705-9.814.729-2.825 1.464-5.668 2.303-8.468.841-2.807 1.728-5.591 2.346-8.461.247-1.146.873-2.209 1.136-3.353 1.005-4.375 2.418-8.651 3.7-12.93 1.418-4.732 2.202-9.628 3.894-14.285.395-1.086.258-2.369.62-3.571.456-1.509.046-3.408.8-4.665.866-1.445-.301-3.132 1.001-4.34.196-.182.044-.757.025-1.15-.153-3.171.591-6.09 2.343-8.762.39-.595.553-1.338.855-2.099 1.909.547 2.724 2.386 4.263 3.352 1.387.871 2.858 1.748 4.192 2.771 1.401 1.074 2.914 2.001 4.291 2.933 0 .611-.132 1.066.022 1.38.772 1.564 1.445 3.189 1.68 4.894.23 1.668.908 3.21 1.36 4.771.531 1.834.739 3.776 1.512 5.547.108.248.196.602.102.826-.408.968-.621 1.936-.602 3.007.016.913.226 1.826-.459 2.763-.562.769-.139 1.929-.537 2.995-.417 1.115-.597 2.533-.71 3.828-.204 2.332-1.388 4.462-1.311 6.836-.827.568-.347 1.432-.499 2.154-.15.714-.436 1.402-.568 2.118-.237 1.287-.002 2.899-.702 3.804-.897 1.159.195 2.586-.941 3.478-.012 2.357-.967 4.529-1.359 6.816-.388 2.262-.588 4.714-3.082 6.301zM244.351 139.753c-1.6 2.236-3.532 4.188-5.154 6.423-1.17 1.612-2.769 2.888-3.958 4.551-1.333 1.865-3.168 3.37-4.506 5.232-2.329 3.241-5.247 5.978-7.575 9.219-1.106 1.54-2.574 2.805-3.77 4.323-2.088 2.65-4.524 5.027-6.822 7.511-2.565 2.772-5.148 5.527-7.708 8.304-2.582 2.802-5.712 4.807-9.138 6.405-1.075.502-2.107 1.096-3.375 1.761-1.213 0-2.682.036-4.149-.008-2.229-.067-4.089-.904-5.792-2.415-1.962-1.742-3.494-3.812-4.692-6.046-.973-1.814-1.338-3.958-1.954-5.961-.867-2.818-.723-5.732-.536-8.594.138-2.103.711-4.193 1.243-6.249.432-1.668 1.285-3.242 1.594-4.923.302-1.644 1.487-3.043 1.235-4.807 1.285-2.139 1.697-4.604 2.59-6.886 1.324-3.382 2.692-6.746 3.919-10.167.549-1.533 1.27-3.039 1.975-4.479 2.001-4.085 3.294-8.486 5.655-12.404 1.274-2.113 2.271-4.406 3.672-6.425 2.265-3.267 4.146-6.771 6.479-10.163 2.403-.274 4.735-.088 7.042 1.051 2.153 1.062 3.918 2.676 5.105 4.534 1.027 1.607 1.549 3.773 1.295 5.587-1.989 3.924-4.093 7.481-5.595 11.276-.837 2.115-2.069 4.036-2.716 6.253-.605 2.073-1.864 3.948-2.559 6.004-1.311 3.88-3.467 7.422-4.457 11.42-1.976 2.771-2.321 6.371-4.671 8.993-.81.904-1.088 2.285-1.747 3.756v4.273c.547-.759.895-1.327 1.324-1.825 2.558-2.974 5.21-5.871 7.68-8.916 1.794-2.211 3.632-4.389 5.392-6.619 2.465-3.124 5.349-5.889 7.598-9.201.951-1.401 2.266-2.559 3.337-3.918 2.426-3.077 5.177-5.897 7.641-8.946 2.098-2.598 4.286-5.112 6.441-7.658 3.011-3.555 5.905-7.209 8.986-10.711 2.071-2.354 3.949-4.878 6.001-7.434 1.32.5 2.505.96 3.698 1.397 3.94 1.443 7.887 2.853 11.365 5.301 3.398 2.391 5.461 5.557 5.953 9.721.108.912.453 1.795.555 2.707.098.873-.001 1.767.025 2.65.109 3.703-.831 7.23-1.969 10.687-.26.789-.444 1.295-.05 2.051.245.469.275 1.112.228 1.661-.145 1.691-.251 3.402-.607 5.055-.324 1.502-.962 2.935-1.449 4.403-.833 2.512-1.704 5.009-2.352 7.583-.12.475.148.593.16.85.034.724-.081 1.458-.176 2.183-.3 2.294-1.332 4.407-1.51 6.762-.137 1.812-.817 3.588-1.275 5.36-.574 2.221-.961 4.483-1.575 6.698-1.054 3.799-1.638 7.716-2.885 11.481-.494 1.491-.504 3.142-.759 4.883-2.155 1.171-2.312 3.587-2.84 5.707-.938 3.763-1.384 7.659-2.475 11.37-.855 2.907-1.265 5.904-2.159 8.81-.609 1.978-.945 4.16-1.238 6.262-.271 1.947-.67 3.824-1.212 5.702-.209.726.041 1.572-.058 2.345-.079.621-.559 1.225-.531 1.82.091 1.928-.86 3.694-.667 5.656.192 1.943.042 3.92.042 5.649l-1.769 3.428c0 .229.01.808-.002 1.386-.039 1.9.008 3.771-.524 5.669-.477 1.703.393 3.646-.653 5.338.432 2.331-.677 4.523-.604 6.83.068 2.156.015 4.317.015 6.449.891 1.057 1.767.997 3.065.577 2.241-.724 4.15-1.919 6.046-3.207.773-.525 1.473-1.167 2.276-1.635.366-.213.904-.131 1.452-.192l.847 7.691-3.074 3.639v4.334l-.86.859h-3.097c-1.582.913-2.783 1.954-4.155 2.285-1.059.256-2.394-.224-3.497-.655-1.519-.594-2.922-1.479-4.399-2.187-1.573-.753-2.417-2.275-3.095-3.62-1.14-2.259-2.802-4.126-4.141-6.214-1.152-1.797-1.846-3.799-3.033-5.544-1.162-1.708-1.037-3.876-2.018-5.649-.042-.075 0-.194-.006-.292-.196-3.259-.807-6.561-.48-9.766.374-3.665.165-7.34.591-10.954.235-1.99.164-4.017.562-5.941.332-1.606.42-3.176.537-4.781.116-1.592.405-3.197.68-4.747.249-1.406.125-2.883.548-4.172.466-1.42.181-2.881.594-4.177.39-1.224.181-2.501.584-3.585.455-1.224.193-2.499.589-3.588.445-1.223.053-2.667.61-3.554.941-1.497.105-3.119.971-4.646.73-1.287.117-3.311.799-4.654l.98-4.918c.682-1.342.229-3.219.744-4.697 1.066-3.06.872-6.408 2.304-9.358-.099-3.416 1.361-6.545 1.866-9.864.425-2.794 1.238-5.564 1.829-8.357.245-1.155.737-2.257 1.004-3.409.274-1.178.333-2.407.622-3.58.658-2.667 1.429-5.305 2.099-7.969.76-3.026 1.459-6.067 2.184-9.101l-.56-.347zM128.519 122.349c.387-1.478-.327-2.648.835-3.538-1.775-.632-3.089.423-4.534.842l-1.367-2.03 1.025-.346v-2.796c.77-1.315 1.216-2.497 2.015-3.344 1.238-1.312 2.554-2.729 4.131-3.502 2.683-1.316 5.217-2.954 8.138-3.829 1.454-.436 2.73-1.469 4.298-2.352 1.28 1.533 3.064 2.227 5.159 1.72 3.709 3.131 7.648 5.897 9.896 10.408l2.619.907c1.554 2.33 3.126 4.505 4.502 6.797 2.016 3.358 3.868 6.781 5.441 10.41 1.339 3.092 1.92 6.299 2.736 9.464.451 1.75.059 3.712.085 5.578.069 5.021-1.453 9.657-3.172 14.303-1.739 4.701-4.376 8.867-7.169 12.932-2.246 3.269-4.828 6.306-7.396 9.35-2.703 3.204-5.679 6.112-8.622 9.062-1.694 1.697-3.562 3.221-5.366 4.807-1.175 1.033-1.908 2.289-2.003 3.961-2.125.697-3.718 2.25-5.834 3.076-2.031.793-4.106 1.659-6.172 2.109-2.344.51-4.896.257-7.336.062-1.325-.106-2.675-.638-3.885-1.238-1.154-.572-2.151-1.466-3.196-2.248-1.279-.957-2.68-1.809-3.759-2.959-1.003-1.069-2.482-1.603-3.154-3.039-.541-1.157-1.454-2.159-1.877-3.346-.469-1.315-1.097-2.278-2.428-2.801-.419-.164-.706-.666-.921-.881-.651-3.234-1.271-6.316-1.921-9.551.123-.328.487-.84.479-1.347-.078-5.029 1.72-9.638 3.201-14.304 1.929-6.076 4.668-11.824 7.53-17.5.514-1.02.901-1.96 1.158-3.074.277-1.202 1.047-2.317 1.719-3.397 1.413-2.272 2.908-4.494 4.355-6.745.194-.302.303-.658.474-1.039 1.052-.759 3.123-.577 2.815-2.8 1.327-.87 1.607-2.55 3.203-3.442 1.837-1.027 3.103-3.074 4.298-4.34zm5.362 49.166c.489.087.758.214.841.138 1.142-1.055 2.518-1.977 3.315-3.256.937-1.504 2.144-2.791 3.047-4.309.943-1.585 2.059-3.065 3.04-4.628 1.84-2.935 3.538-5.909 4.692-9.238.836-2.413 1.493-4.867 2.274-7.288.586-1.816 1.171-3.632 1.754-5.443-.953-2.574-1.269-5.4-2.889-8.023-.54.539-1.039.812-1.172 1.207-.851 2.529-2.71 4.423-4.245 6.459-2.846 3.777-5.469 7.661-7.627 11.863-4.148 8.076-8.494 16.057-12.002 24.443-.517 1.235-1.474 2.567-.741 4.045 2.568-2.108 5.012-4.228 7.596-6.161.699-.523 1.652-1.362 2.807-.583l-.69.774zM416.759 113.64l2.599.835c1.43 2.211 2.785 4.41 4.243 6.537 3.015 4.398 5.3 9.156 7.045 14.173.451 1.298.436 2.757.876 4.061.858 2.546.5 5.143.551 7.722.097 4.923-1.341 9.512-3.159 14.01-.51 1.262-.95 2.56-1.564 3.771-2.179 4.3-4.874 8.267-7.786 12.106-1.784 2.352-3.77 4.532-5.584 6.837-2.543 3.231-5.578 5.941-8.42 8.852-1.674 1.715-3.558 3.225-5.363 4.81-1.11.975-1.693 2.203-1.89 3.857-2.018.622-3.607 2.179-5.725 3.004-2.035.792-4.106 1.652-6.181 2.089-2.349.495-4.891.294-7.322.086-1.317-.113-2.64-.747-3.893-1.227-1.431-.549-2.601-1.758-3.924-2.618-1.987-1.291-3.467-3.194-5.514-4.44-.698-.425-1.006-1.503-1.467-2.297-.412-.71-.786-1.442-1.184-2.161-.443-.799-.775-1.703-1.376-2.359-.544-.594-1.386-.915-2.117-1.369v-2.676c-.243-.03-.416-.11-.515-.056-1.833.997-3.475 2.225-4.956 3.719-1.342 1.353-2.947 2.446-4.292 3.798-.923.928-1.599 2.103-2.63 3.499v1.932c-2.408 1.718-4.885 2.784-7.529 3.636-1.246.402-2.746-.311-3.737.914-1.293-.2-2.722.496-3.881-.59-2.36.295-4.433-.73-6.302-1.832-2.648-1.56-5.046-3.423-6.994-6.012-1.579-2.098-2.8-4.41-4.397-6.485-.914-1.188-1.637-2.737-1.832-4.205-.193-1.451-1.205-2.46-1.396-3.888-.177-1.321-.714-2.66-1.015-3.963-.532-2.297-.581-4.724-.644-7.102-.031-1.189.411-2.384.534-3.587.124-1.212-.273-2.501.606-3.585-.406-2.803.63-5.444 1.355-8 .719-2.535 1.403-5.13 2.028-7.666.856-3.477 1.714-6.977 2.579-10.457.676-2.722 1.515-5.427 2.466-8.097.885-2.484 2.357-4.749 2.795-7.393 1.108-.941.304-2.213.686-3.507.393-.76 1.065-1.683 1.359-2.713.525-1.844 2.087-2.361 3.526-2.811 1.502-.47 3.145-.572 4.736-.655 2.941-.153 5.341 1.129 7.663 2.853 1.637 1.215 3.062 2.61 4.517 4.001 2.709 2.589 3.663 5.562 2.282 9.197-.55 1.447-1.023 2.987-1.145 4.516-.121 1.514-1.049 2.897-.649 4.466-1.047 1.445-.383 3.243-1.065 4.864-.58 1.376-.239 3.125-.634 4.734-.634 2.587-1.069 5.17-2.386 7.574-1.419 2.591-1.794 5.556-2.431 8.422-.534 2.402-1.308 4.753-2.024 7.113-.449 1.479-.869 2.984-1.515 4.379-.678 1.462-.479 3.064-1.071 4.566-.597 1.514.241 3.118.844 4.76 9.948-5.109 19.193-11.166 26.973-18.795.899-2.426 1.694-4.553 2.475-6.686 1.41-3.854 3.513-7.383 5.21-11.101.418-.915.762-1.844 1.075-2.805.584-1.791 1.682-3.433 2.689-5.062 1.255-2.03 2.633-3.984 4.294-6.475.689-.429 2.683-.471 2.492-2.697 1.21-.988 1.703-2.509 3.225-3.419 1.731-1.036 3.298-2.658 4.269-4.726.281-.881-.433-2.069.697-3.009-1.743-.629-3.045.438-4.54.802l-1.365-2.042.881-.206c.078-.164.233-.335.22-.492-.318-3.806 1.953-6.212 4.655-8.252 1.442-1.089 3.119-1.919 4.788-2.638 1.664-.718 3.091-1.86 4.997-2.218 1.351-.253 2.526-1.441 3.978-2.333 1.393 1.623 3.318 2.183 5.296 1.801 1.425 1.163 2.72 2.14 3.92 3.222 1.166 1.051 2.143 2.326 3.37 3.289 1.341 1.053 1.634 2.727 2.62 3.9zm-7.981 15.592c-.788.787-1.3 1.063-1.424 1.461-.771 2.461-2.556 4.322-4.059 6.233-2.937 3.735-5.581 7.643-7.724 11.836-4.173 8.16-8.578 16.215-12.087 24.697-.501 1.212-1.529 2.539-.712 4.008 2.57-2.109 5.009-4.235 7.601-6.157.682-.506 1.652-1.392 2.779-.57l-.882 1.204c2.322-.802 3.429-2.265 4.354-3.583 1.005-1.431 2.16-2.771 3.052-4.297.931-1.592 2.06-3.066 3.053-4.624.936-1.467 2.021-2.891 2.649-4.488.63-1.601 1.521-3.067 2.063-4.747.78-2.42 1.483-4.868 2.241-7.297.568-1.821 1.171-3.632 1.76-5.454l-2.664-8.222zM357.969 73.071l-.95 4.355c.125 1.633-.032 3.118.41 4.395.455 1.315.486 2.581.52 3.891-1.269 2.182-1.269 2.182-3.289 3.409-.959 0-2.044-.121-3.093.022-3.356.46-6.142-1.113-9.021-2.383-.166-.073-.37-.132-.474-.262-.639-.807-1.212-1.671-1.889-2.443-.71-.808-1.563-1.492-2.26-2.309-.66-.775-1.452-1.573-1.745-2.5-.987-3.119-2.705-5.962-3.105-9.335-.176-1.48-.387-2.969-.503-4.471-.053-.691-.361-1.363-.615-2.262 1.98 0 3.831-.138 5.652.032 2.712.254 5.219-.597 7.702-1.337 1.899-.566 3.725-1.198 5.934-1.006 1.392 1.682 3.512 2.942 4.38 5.33.256.705.615 1.316.573 2.121-.096 1.845.533 3.465 1.773 4.753zM272.346 188.922c2.775-3.104 5.155-5.767 7.468-8.353.645 0 1.154-.082 1.621.024.428.097.809.396 1.247.624 2.218-1.566 3.509-4.162 6.142-5.229l1.046 2.865 3.337 1.724h2.171l-.475 2.56c4.842 5.048 4.725 5.898 3.598 10.653-2.43 2.645-4.898 5.353-7.391 8.035-1.246 1.34-2.787 2.114-4.623 2.344-.813.102-1.603.385-2.407.571-.722.167-1.573-.347-2.184.413-1.989-.773-4.306-.328-6.069-2.098-2.615-2.626-4.039-5.61-3.834-9.322.093-1.689.246-3.376.353-4.811z"/></svg>