<?xml version="1.0" encoding="utf-8"?>
<!-- Generator: Adobe Illustrator 17.1.0, SVG Export Plug-In . SVG Version: 6.00 Build 0)  -->
<!DOCTYPE svg PUBLIC "-//W3C//DTD SVG 1.1//EN" "http://www.w3.org/Graphics/SVG/1.1/DTD/svg11.dtd">
<svg version="1.1" id="Layer_1" xmlns="http://www.w3.org/2000/svg" xmlns:xlink="http://www.w3.org/1999/xlink" x="0px" y="0px"
	 viewBox="0 0 442 300" enable-background="new 0 0 442 300" xml:space="preserve">
<path d="M64.734,80.585c0.843,2.894-0.743,5.025-1.822,7.275c-1.661,3.462-2.896,7.042-4.01,10.732
	c-1.426,4.726-1.956,9.699-4,14.248c-0.706,1.572-1.238,3.222-1.949,5.099c2.911,0.042,5.404-0.68,7.568-2.342
	c3.237-2.485,6.424-5.035,10.219-6.651c2.458-1.047,4.923-2.09,7.663-2.136c0.196-0.003,0.443,0.077,0.582-0.012
	c2.188-1.399,3.808,0.167,5.133,1.34c3.402,3.011,7.017,5.711,10.926,8.336c-1.064,3.054-0.52,6.234-0.663,9.293
	c-1.667,1.931-3.295,3.817-4.971,5.76c-0.514,0-1.09,0-1.683,0c-1.998,1.554-2.753,3.968-4.117,6.01
	c-0.507-0.47-0.915-0.849-1.216-1.128c-1.52,0.957-2.941,2.029-4.51,2.801c-2.946,1.45-5.349,3.667-8.036,5.476
	c-2.07,1.394-4.057,2.876-6.298,4.025c-1.738,0.891-3.409,1.951-4.793,3.416c-0.697,0.738-1.53,1.366-2.384,1.978
	c-2.412,1.728-3.95,4.352-5.554,6.795c-1.198,1.826-0.712,4.401,0.942,6.119c3.467,3.603,6.922,7.231,11.178,9.973
	c2.035,1.311,3.994,2.752,5.909,4.235c3.889,3.012,8.016,5.672,12.284,8.081c4.121,2.327,8.428,4.322,12.61,6.544
	c6.182,3.284,12.034,7.112,17.845,11.001c1.195,0.8,2.36,1.646,3.661,2.557c-1.956,1.436-4.256,0.888-6.087,1.88
	c-2.338-2.064-5.333-2.085-7.856-2.86c-1.136,0.608-2.258,1.208-3.571,1.91c-0.374-0.722-0.65-1.256-0.822-1.587
	c-4.826,0.375-8.794-1.036-12.812-2.703c-1.932-0.802-3.758-1.828-5.716-2.569c-1.95-0.738-3.85-1.626-5.716-2.562
	c-1.471-0.738-2.825-1.708-4.288-2.464c-1.369-0.707-2.799-1.305-4.228-1.886c-3.746-1.522-6.793-4.108-10.002-6.459
	c-4.536-3.325-8.518-7.255-12.415-11.275c-1.466-1.512-2.788-3.163-4.183-4.744c-0.244-0.276-0.523-0.521-0.946-0.939
	c-1.399,2.041-2.128,4.154-2.948,6.222c-1.146,2.891-1.966,5.882-2.736,8.888c-0.321,1.254-0.335,2.547-0.758,3.809
	c-0.848,2.531-0.786,5.294-1.806,7.803c-0.034,0.084,0.001,0.195-0.005,0.293c-0.195,2.866-0.444,5.73-0.558,8.6
	c-0.036,0.901-0.457,1.961,0.539,2.728c0.143,0.11,0.13,0.627,0.003,0.849c-1.144,1.995-0.253,4.175-0.667,6.339
	c-1.874,3.43-4.108,2.783-7.359,1.799c-1.379-0.418-2.655-1.173-4.091-1.826c-0.515-1.45-2.032-2.286-3.037-3.523
	c-0.569-1.94-1.247-3.844-1.673-5.803c-0.614-2.822-1.812-5.562-1.427-8.548c0.155-1.201,0.412-2.389,0.576-3.589
	c0.164-1.202,0.161-2.383,0.468-3.619c0.484-1.943,0.053-4.098,0.157-6.156c0.061-1.205-0.39-2.417,0.45-3.65
	c0.657-0.964-0.129-2.311,0.573-3.593c0.612-1.117,0.4-2.732,0.615-4.126c0.467-3.035,1.459-5.923,2.059-8.914
	c0.663-3.301,1.995-6.466,2.709-9.76c0.682-3.148,1.637-6.217,2.506-9.301c0.269-0.957,0.305-1.988,0.74-2.924
	c0.418-0.902,0.957-1.94,0.844-2.844c-0.121-0.968,1.085-1.847,0.092-2.766c0.983-1.585,1.131-3.457,1.713-5.179
	c1.344-3.975,2.274-8.091,3.625-12.064c1.644-4.831,2.593-9.882,4.657-14.575c0.054-2.827,1.468-5.298,2.15-7.963
	c0.674-2.634,1.622-5.233,2.337-7.85c0.893-3.267,1.857-6.529,2.705-9.814c0.729-2.825,1.464-5.668,2.303-8.468
	c0.841-2.807,1.728-5.591,2.346-8.461c0.247-1.146,0.873-2.209,1.136-3.353c1.005-4.375,2.418-8.651,3.7-12.93
	c1.418-4.732,2.202-9.628,3.894-14.285c0.395-1.086,0.258-2.369,0.62-3.571c0.456-1.509,0.046-3.408,0.8-4.665
	c0.866-1.445-0.301-3.132,1.001-4.34c0.196-0.182,0.044-0.757,0.025-1.15c-0.153-3.171,0.591-6.09,2.343-8.762
	c0.39-0.595,0.553-1.338,0.855-2.099c1.909,0.547,2.724,2.386,4.263,3.352c1.387,0.871,2.858,1.748,4.192,2.771
	c1.401,1.074,2.914,2.001,4.291,2.933c0,0.611-0.132,1.066,0.022,1.38c0.772,1.564,1.445,3.189,1.68,4.894
	c0.23,1.668,0.908,3.21,1.36,4.771c0.531,1.834,0.739,3.776,1.512,5.547c0.108,0.248,0.196,0.602,0.102,0.826
	c-0.408,0.968-0.621,1.936-0.602,3.007c0.016,0.913,0.226,1.826-0.459,2.763c-0.562,0.769-0.139,1.929-0.537,2.995
	c-0.417,1.115-0.597,2.533-0.71,3.828c-0.204,2.332-1.388,4.462-1.311,6.836c-0.827,0.568-0.347,1.432-0.499,2.154
	c-0.15,0.714-0.436,1.402-0.568,2.118c-0.237,1.287-0.002,2.899-0.702,3.804c-0.897,1.159,0.195,2.586-0.941,3.478
	c-0.012,2.357-0.967,4.529-1.359,6.816C67.428,76.546,67.228,78.998,64.734,80.585z"/>
<path d="M244.351,139.753c-1.6,2.236-3.532,4.188-5.154,6.423c-1.17,1.612-2.769,2.888-3.958,4.551
	c-1.333,1.865-3.168,3.37-4.506,5.232c-2.329,3.241-5.247,5.978-7.575,9.219c-1.106,1.54-2.574,2.805-3.77,4.323
	c-2.088,2.65-4.524,5.027-6.822,7.511c-2.565,2.772-5.148,5.527-7.708,8.304c-2.582,2.802-5.712,4.807-9.138,6.405
	c-1.075,0.502-2.107,1.096-3.375,1.761c-1.213,0-2.682,0.036-4.149-0.008c-2.229-0.067-4.089-0.904-5.792-2.415
	c-1.962-1.742-3.494-3.812-4.692-6.046c-0.973-1.814-1.338-3.958-1.954-5.961c-0.867-2.818-0.723-5.732-0.536-8.594
	c0.138-2.103,0.711-4.193,1.243-6.249c0.432-1.668,1.285-3.242,1.594-4.923c0.302-1.644,1.487-3.043,1.235-4.807
	c1.285-2.139,1.697-4.604,2.59-6.886c1.324-3.382,2.692-6.746,3.919-10.167c0.549-1.533,1.27-3.039,1.975-4.479
	c2.001-4.085,3.294-8.486,5.655-12.404c1.274-2.113,2.271-4.406,3.672-6.425c2.265-3.267,4.146-6.771,6.479-10.163
	c2.403-0.274,4.735-0.088,7.042,1.051c2.153,1.062,3.918,2.676,5.105,4.534c1.027,1.607,1.549,3.773,1.295,5.587
	c-1.989,3.924-4.093,7.481-5.595,11.276c-0.837,2.115-2.069,4.036-2.716,6.253c-0.605,2.073-1.864,3.948-2.559,6.004
	c-1.311,3.88-3.467,7.422-4.457,11.42c-1.976,2.771-2.321,6.371-4.671,8.993c-0.81,0.904-1.088,2.285-1.747,3.756
	c0,1.074,0,2.519,0,4.273c0.547-0.759,0.895-1.327,1.324-1.825c2.558-2.974,5.21-5.871,7.68-8.916
	c1.794-2.211,3.632-4.389,5.392-6.619c2.465-3.124,5.349-5.889,7.598-9.201c0.951-1.401,2.266-2.559,3.337-3.918
	c2.426-3.077,5.177-5.897,7.641-8.946c2.098-2.598,4.286-5.112,6.441-7.658c3.011-3.555,5.905-7.209,8.986-10.711
	c2.071-2.354,3.949-4.878,6.001-7.434c1.32,0.5,2.505,0.96,3.698,1.397c3.94,1.443,7.887,2.853,11.365,5.301
	c3.398,2.391,5.461,5.557,5.953,9.721c0.108,0.912,0.453,1.795,0.555,2.707c0.098,0.873-0.001,1.767,0.025,2.65
	c0.109,3.703-0.831,7.23-1.969,10.687c-0.26,0.789-0.444,1.295-0.05,2.051c0.245,0.469,0.275,1.112,0.228,1.661
	c-0.145,1.691-0.251,3.402-0.607,5.055c-0.324,1.502-0.962,2.935-1.449,4.403c-0.833,2.512-1.704,5.009-2.352,7.583
	c-0.12,0.475,0.148,0.593,0.16,0.85c0.034,0.724-0.081,1.458-0.176,2.183c-0.3,2.294-1.332,4.407-1.51,6.762
	c-0.137,1.812-0.817,3.588-1.275,5.36c-0.574,2.221-0.961,4.483-1.575,6.698c-1.054,3.799-1.638,7.716-2.885,11.481
	c-0.494,1.491-0.504,3.142-0.759,4.883c-2.155,1.171-2.312,3.587-2.84,5.707c-0.938,3.763-1.384,7.659-2.475,11.37
	c-0.855,2.907-1.265,5.904-2.159,8.81c-0.609,1.978-0.945,4.16-1.238,6.262c-0.271,1.947-0.67,3.824-1.212,5.702
	c-0.209,0.726,0.041,1.572-0.058,2.345c-0.079,0.621-0.559,1.225-0.531,1.82c0.091,1.928-0.86,3.694-0.667,5.656
	c0.192,1.943,0.042,3.92,0.042,5.649c-0.603,1.168-1.106,2.144-1.769,3.428c0,0.229,0.01,0.808-0.002,1.386
	c-0.039,1.9,0.008,3.771-0.524,5.669c-0.477,1.703,0.393,3.646-0.653,5.338c0.432,2.331-0.677,4.523-0.604,6.83
	c0.068,2.156,0.015,4.317,0.015,6.449c0.891,1.057,1.767,0.997,3.065,0.577c2.241-0.724,4.15-1.919,6.046-3.207
	c0.773-0.525,1.473-1.167,2.276-1.635c0.366-0.213,0.904-0.131,1.452-0.192c0.302,2.745,0.592,5.376,0.847,7.691
	c-1.213,1.436-2.194,2.597-3.074,3.639c0,1.582,0,2.958,0,4.334c-0.278,0.278-0.556,0.556-0.86,0.859c-1.146,0-2.318,0-3.097,0
	c-1.582,0.913-2.783,1.954-4.155,2.285c-1.059,0.256-2.394-0.224-3.497-0.655c-1.519-0.594-2.922-1.479-4.399-2.187
	c-1.573-0.753-2.417-2.275-3.095-3.62c-1.14-2.259-2.802-4.126-4.141-6.214c-1.152-1.797-1.846-3.799-3.033-5.544
	c-1.162-1.708-1.037-3.876-2.018-5.649c-0.042-0.075,0-0.194-0.006-0.292c-0.196-3.259-0.807-6.561-0.48-9.766
	c0.374-3.665,0.165-7.34,0.591-10.954c0.235-1.99,0.164-4.017,0.562-5.941c0.332-1.606,0.42-3.176,0.537-4.781
	c0.116-1.592,0.405-3.197,0.68-4.747c0.249-1.406,0.125-2.883,0.548-4.172c0.466-1.42,0.181-2.881,0.594-4.177
	c0.39-1.224,0.181-2.501,0.584-3.585c0.455-1.224,0.193-2.499,0.589-3.588c0.445-1.223,0.053-2.667,0.61-3.554
	c0.941-1.497,0.105-3.119,0.971-4.646c0.73-1.287,0.117-3.311,0.799-4.654c0.818-1.612,0.161-3.306,0.98-4.918
	c0.682-1.342,0.229-3.219,0.744-4.697c1.066-3.06,0.872-6.408,2.304-9.358c-0.099-3.416,1.361-6.545,1.866-9.864
	c0.425-2.794,1.238-5.564,1.829-8.357c0.245-1.155,0.737-2.257,1.004-3.409c0.274-1.178,0.333-2.407,0.622-3.58
	c0.658-2.667,1.429-5.305,2.099-7.969c0.76-3.026,1.459-6.067,2.184-9.101C244.725,139.984,244.538,139.868,244.351,139.753z"/>
<path d="M128.519,122.349c0.387-1.478-0.327-2.648,0.835-3.538c-1.775-0.632-3.089,0.423-4.534,0.842
	c-0.403-0.598-0.87-1.293-1.367-2.03c0.247-0.084,0.585-0.197,1.025-0.346c0-1.014,0-2.068,0-2.796
	c0.77-1.315,1.216-2.497,2.015-3.344c1.238-1.312,2.554-2.729,4.131-3.502c2.683-1.316,5.217-2.954,8.138-3.829
	c1.454-0.436,2.73-1.469,4.298-2.352c1.28,1.533,3.064,2.227,5.159,1.72c3.709,3.131,7.648,5.897,9.896,10.408
	c0.877,0.304,1.821,0.631,2.619,0.907c1.554,2.33,3.126,4.505,4.502,6.797c2.016,3.358,3.868,6.781,5.441,10.41
	c1.339,3.092,1.92,6.299,2.736,9.464c0.451,1.75,0.059,3.712,0.085,5.578c0.069,5.021-1.453,9.657-3.172,14.303
	c-1.739,4.701-4.376,8.867-7.169,12.932c-2.246,3.269-4.828,6.306-7.396,9.35c-2.703,3.204-5.679,6.112-8.622,9.062
	c-1.694,1.697-3.562,3.221-5.366,4.807c-1.175,1.033-1.908,2.289-2.003,3.961c-2.125,0.697-3.718,2.25-5.834,3.076
	c-2.031,0.793-4.106,1.659-6.172,2.109c-2.344,0.51-4.896,0.257-7.336,0.062c-1.325-0.106-2.675-0.638-3.885-1.238
	c-1.154-0.572-2.151-1.466-3.196-2.248c-1.279-0.957-2.68-1.809-3.759-2.959c-1.003-1.069-2.482-1.603-3.154-3.039
	c-0.541-1.157-1.454-2.159-1.877-3.346c-0.469-1.315-1.097-2.278-2.428-2.801c-0.419-0.164-0.706-0.666-0.921-0.881
	c-0.651-3.234-1.271-6.316-1.921-9.551c0.123-0.328,0.487-0.84,0.479-1.347c-0.078-5.029,1.72-9.638,3.201-14.304
	c1.929-6.076,4.668-11.824,7.53-17.5c0.514-1.02,0.901-1.96,1.158-3.074c0.277-1.202,1.047-2.317,1.719-3.397
	c1.413-2.272,2.908-4.494,4.355-6.745c0.194-0.302,0.303-0.658,0.474-1.039c1.052-0.759,3.123-0.577,2.815-2.8
	c1.327-0.87,1.607-2.55,3.203-3.442C126.058,125.662,127.324,123.615,128.519,122.349z M133.881,171.515
	c0.489,0.087,0.758,0.214,0.841,0.138c1.142-1.055,2.518-1.977,3.315-3.256c0.937-1.504,2.144-2.791,3.047-4.309
	c0.943-1.585,2.059-3.065,3.04-4.628c1.84-2.935,3.538-5.909,4.692-9.238c0.836-2.413,1.493-4.867,2.274-7.288
	c0.586-1.816,1.171-3.632,1.754-5.443c-0.953-2.574-1.269-5.4-2.889-8.023c-0.54,0.539-1.039,0.812-1.172,1.207
	c-0.851,2.529-2.71,4.423-4.245,6.459c-2.846,3.777-5.469,7.661-7.627,11.863c-4.148,8.076-8.494,16.057-12.002,24.443
	c-0.517,1.235-1.474,2.567-0.741,4.045c2.568-2.108,5.012-4.228,7.596-6.161c0.699-0.523,1.652-1.362,2.807-0.583
	C134.375,170.96,134.193,171.164,133.881,171.515z"/>
<g>
	<path d="M416.759,113.64c0.932,0.299,1.799,0.578,2.599,0.835c1.43,2.211,2.785,4.41,4.243,6.537
		c3.015,4.398,5.3,9.156,7.045,14.173c0.451,1.298,0.436,2.757,0.876,4.061c0.858,2.546,0.5,5.143,0.551,7.722
		c0.097,4.923-1.341,9.512-3.159,14.01c-0.51,1.262-0.95,2.56-1.564,3.771c-2.179,4.3-4.874,8.267-7.786,12.106
		c-1.784,2.352-3.77,4.532-5.584,6.837c-2.543,3.231-5.578,5.941-8.42,8.852c-1.674,1.715-3.558,3.225-5.363,4.81
		c-1.11,0.975-1.693,2.203-1.89,3.857c-2.018,0.622-3.607,2.179-5.725,3.004c-2.035,0.792-4.106,1.652-6.181,2.089
		c-2.349,0.495-4.891,0.294-7.322,0.086c-1.317-0.113-2.64-0.747-3.893-1.227c-1.431-0.549-2.601-1.758-3.924-2.618
		c-1.987-1.291-3.467-3.194-5.514-4.44c-0.698-0.425-1.006-1.503-1.467-2.297c-0.412-0.71-0.786-1.442-1.184-2.161
		c-0.443-0.799-0.775-1.703-1.376-2.359c-0.544-0.594-1.386-0.915-2.117-1.369c0-0.975,0-1.832,0-2.676
		c-0.243-0.03-0.416-0.11-0.515-0.056c-1.833,0.997-3.475,2.225-4.956,3.719c-1.342,1.353-2.947,2.446-4.292,3.798
		c-0.923,0.928-1.599,2.103-2.63,3.499c0,0.419,0,1.276,0,1.932c-2.408,1.718-4.885,2.784-7.529,3.636
		c-1.246,0.402-2.746-0.311-3.737,0.914c-1.293-0.2-2.722,0.496-3.881-0.59c-2.36,0.295-4.433-0.73-6.302-1.832
		c-2.648-1.56-5.046-3.423-6.994-6.012c-1.579-2.098-2.8-4.41-4.397-6.485c-0.914-1.188-1.637-2.737-1.832-4.205
		c-0.193-1.451-1.205-2.46-1.396-3.888c-0.177-1.321-0.714-2.66-1.015-3.963c-0.532-2.297-0.581-4.724-0.644-7.102
		c-0.031-1.189,0.411-2.384,0.534-3.587c0.124-1.212-0.273-2.501,0.606-3.585c-0.406-2.803,0.63-5.444,1.355-8
		c0.719-2.535,1.403-5.13,2.028-7.666c0.856-3.477,1.714-6.977,2.579-10.457c0.676-2.722,1.515-5.427,2.466-8.097
		c0.885-2.484,2.357-4.749,2.795-7.393c1.108-0.941,0.304-2.213,0.686-3.507c0.393-0.76,1.065-1.683,1.359-2.713
		c0.525-1.844,2.087-2.361,3.526-2.811c1.502-0.47,3.145-0.572,4.736-0.655c2.941-0.153,5.341,1.129,7.663,2.853
		c1.637,1.215,3.062,2.61,4.517,4.001c2.709,2.589,3.663,5.562,2.282,9.197c-0.55,1.447-1.023,2.987-1.145,4.516
		c-0.121,1.514-1.049,2.897-0.649,4.466c-1.047,1.445-0.383,3.243-1.065,4.864c-0.58,1.376-0.239,3.125-0.634,4.734
		c-0.634,2.587-1.069,5.17-2.386,7.574c-1.419,2.591-1.794,5.556-2.431,8.422c-0.534,2.402-1.308,4.753-2.024,7.113
		c-0.449,1.479-0.869,2.984-1.515,4.379c-0.678,1.462-0.479,3.064-1.071,4.566c-0.597,1.514,0.241,3.118,0.844,4.76
		c9.948-5.109,19.193-11.166,26.973-18.795c0.899-2.426,1.694-4.553,2.475-6.686c1.41-3.854,3.513-7.383,5.21-11.101
		c0.418-0.915,0.762-1.844,1.075-2.805c0.584-1.791,1.682-3.433,2.689-5.062c1.255-2.03,2.633-3.984,4.294-6.475
		c0.689-0.429,2.683-0.471,2.492-2.697c1.21-0.988,1.703-2.509,3.225-3.419c1.731-1.036,3.298-2.658,4.269-4.726
		c0.281-0.881-0.433-2.069,0.697-3.009c-1.743-0.629-3.045,0.438-4.54,0.802c-0.391-0.585-0.866-1.296-1.365-2.042
		c0.346-0.081,0.613-0.144,0.881-0.206c0.078-0.164,0.233-0.335,0.22-0.492c-0.318-3.806,1.953-6.212,4.655-8.252
		c1.442-1.089,3.119-1.919,4.788-2.638c1.664-0.718,3.091-1.86,4.997-2.218c1.351-0.253,2.526-1.441,3.978-2.333
		c1.393,1.623,3.318,2.183,5.296,1.801c1.425,1.163,2.72,2.14,3.92,3.222c1.166,1.051,2.143,2.326,3.37,3.289
		C415.48,110.793,415.773,112.467,416.759,113.64z M408.778,129.232c-0.788,0.787-1.3,1.063-1.424,1.461
		c-0.771,2.461-2.556,4.322-4.059,6.233c-2.937,3.735-5.581,7.643-7.724,11.836c-4.173,8.16-8.578,16.215-12.087,24.697
		c-0.501,1.212-1.529,2.539-0.712,4.008c2.57-2.109,5.009-4.235,7.601-6.157c0.682-0.506,1.652-1.392,2.779-0.57
		c-0.187,0.256-0.361,0.493-0.882,1.204c2.322-0.802,3.429-2.265,4.354-3.583c1.005-1.431,2.16-2.771,3.052-4.297
		c0.931-1.592,2.06-3.066,3.053-4.624c0.936-1.467,2.021-2.891,2.649-4.488c0.63-1.601,1.521-3.067,2.063-4.747
		c0.78-2.42,1.483-4.868,2.241-7.297c0.568-1.821,1.171-3.632,1.76-5.454C410.61,134.888,409.776,132.311,408.778,129.232z"/>
	<path d="M357.969,73.071c-0.354,1.623-0.684,3.139-0.95,4.355c0.125,1.633-0.032,3.118,0.41,4.395
		c0.455,1.315,0.486,2.581,0.52,3.891c-1.269,2.182-1.269,2.182-3.289,3.409c-0.959,0-2.044-0.121-3.093,0.022
		c-3.356,0.46-6.142-1.113-9.021-2.383c-0.166-0.073-0.37-0.132-0.474-0.262c-0.639-0.807-1.212-1.671-1.889-2.443
		c-0.71-0.808-1.563-1.492-2.26-2.309c-0.66-0.775-1.452-1.573-1.745-2.5c-0.987-3.119-2.705-5.962-3.105-9.335
		c-0.176-1.48-0.387-2.969-0.503-4.471c-0.053-0.691-0.361-1.363-0.615-2.262c1.98,0,3.831-0.138,5.652,0.032
		c2.712,0.254,5.219-0.597,7.702-1.337c1.899-0.566,3.725-1.198,5.934-1.006c1.392,1.682,3.512,2.942,4.38,5.33
		c0.256,0.705,0.615,1.316,0.573,2.121C356.1,70.163,356.729,71.783,357.969,73.071z"/>
</g>
<path d="M272.346,188.922c2.775-3.104,5.155-5.767,7.468-8.353c0.645,0,1.154-0.082,1.621,0.024
	c0.428,0.097,0.809,0.396,1.247,0.624c2.218-1.566,3.509-4.162,6.142-5.229c0.322,0.883,0.685,1.875,1.046,2.865
	c1.045,0.54,2.019,1.043,3.337,1.724c0.472,0,1.327,0,2.171,0c-0.177,0.955-0.337,1.814-0.475,2.56
	c4.842,5.048,4.725,5.898,3.598,10.653c-2.43,2.645-4.898,5.353-7.391,8.035c-1.246,1.34-2.787,2.114-4.623,2.344
	c-0.813,0.102-1.603,0.385-2.407,0.571c-0.722,0.167-1.573-0.347-2.184,0.413c-1.989-0.773-4.306-0.328-6.069-2.098
	c-2.615-2.626-4.039-5.61-3.834-9.322C272.086,192.044,272.239,190.357,272.346,188.922z"/>
</svg>
